<?xml version="1.0" encoding="UTF-8" standalone="no"?>
<svg
   viewBox="0 0 512 512"
   version="1.1"
   id="svg1"
   sodipodi:docname="like-icon.svg"
   inkscape:version="1.3.2 (091e20e, 2023-11-25, custom)"
   xml:space="preserve"
   xmlns:inkscape="http://www.inkscape.org/namespaces/inkscape"
   xmlns:sodipodi="http://sodipodi.sourceforge.net/DTD/sodipodi-0.dtd"
   xmlns="http://www.w3.org/2000/svg"
   xmlns:svg="http://www.w3.org/2000/svg"><defs
     id="defs1" /><sodipodi:namedview
     id="namedview1"
     pagecolor="#ffffff"
     bordercolor="#000000"
     borderopacity="0.25"
     inkscape:showpageshadow="2"
     inkscape:pageopacity="0.0"
     inkscape:pagecheckerboard="0"
     inkscape:deskcolor="#d1d1d1"
     inkscape:zoom="1.5878906"
     inkscape:cx="336.29521"
     inkscape:cy="233.95818"
     inkscape:window-width="1920"
     inkscape:window-height="1009"
     inkscape:window-x="-8"
     inkscape:window-y="-8"
     inkscape:window-maximized="1"
     inkscape:current-layer="svg1" /><circle
     style="fill:#000000;fill-opacity:1;stroke:none;stroke-width:34.3332;stroke-linecap:round;stroke-linejoin:round;paint-order:fill markers stroke"
     id="path2"
     cx="256"
     cy="256"
     r="256" /><!--!Font Awesome Free 6.5.2 by @fontawesome - https://fontawesome.com License - https://fontawesome.com/license/free Copyright 2024 Fonticons, Inc.--><g
     style="fill:#ffffff;stroke-width:57.67942078;stroke:#ffffff"
     id="g2"
     transform="matrix(0.52011618,0,0,0.52011618,435.47064,144.47603)"><g
       id="g1">
	<g
   id="path1-2"><path
     style="color:#000000;stroke:none;-inkscape-stroke:none"
     d="m -147.30876,63.550998 c -24.7,-24.7 -57.4,-38.2 -92.3,-38.2 -34.9,0 -67.7,13.6 -92.4,38.3 l -12.9,12.9 -13.1,-13.1 c -24.7,-24.7 -57.6,-38.4 -92.5,-38.4 -34.8,0 -67.6,13.6 -92.2,38.2 -24.7,24.7 -38.3,57.500002 -38.2,92.400002 0,34.9 13.7,67.6 38.4,92.3 l 187.8,187.8 c 2.6,2.6 6.1,4 9.5,4 3.4,0 6.9,-1.3 9.5,-3.9 l 188.2,-187.5 c 24.7,-24.7 38.3,-57.5 38.3,-92.4 0.1,-34.9 -13.4,-67.700002 -38.1,-92.400002 z"
     id="path3" /><path
     style="color:#000000;stroke:none;-inkscape-stroke:none"
     d="m -450.50781,-3.7890625 c -42.31375,0 -82.68835,16.7410825 -112.59375,46.6464845 -29.97374,29.973735 -46.75462,70.405858 -46.64453,112.833988 0.011,42.43216 16.92457,82.73317 46.84375,112.65234 l 187.80078,187.80078 c 8.09035,8.09035 18.5758,12.44531 29.89258,12.44531 10.75128,0 21.54078,-3.99391 29.89257,-12.3457 l 188.18164,-187.48047 0.0195,-0.0195 c 29.974644,-29.97465 46.73377,-70.37602 46.744136,-112.75391 0.110007,-42.37309 -16.543687,-82.830792 -46.544926,-112.832027 -29.98392,-29.983923 -70.35622,-46.6464842 -112.69335,-46.6464843 -38.99827,1e-7 -76.21881,14.3302903 -105.28907,39.9453123 -29.10871,-25.753275 -66.45981,-40.2460935 -105.60937,-40.2460935 z m 0,57.6796875 c 27.35262,0 52.68944,10.537097 72.10547,29.953125 l 33.49414,33.49219 33.29297,-33.292971 c 19.41602,-19.416028 44.59815,-29.851563 72.00586,-29.851563 27.46279,0 52.49217,10.335925 71.9082,29.751953 19.3885,19.388511 29.73088,44.514671 29.65234,71.925781 v 0.041 0.041 c 0,27.40678 -10.4368,52.5901 -29.85156,72.00586 -6.6e-4,6.6e-4 -0.001,0.001 -0.002,0.002 L -345.13867,404.53516 -522.11523,227.55859 c -19.47107,-19.47107 -29.95313,-44.55558 -29.95313,-71.9082 v -0.041 -0.041 c -0.0784,-27.35603 10.33593,-52.5078 29.75195,-71.923829 19.29455,-19.294548 44.52242,-29.753906 71.8086,-29.753906 z"
     id="path4" /></g>
</g></g></svg>
