<?xml version="1.0" encoding="UTF-8" standalone="no"?>
<!-- Uploaded to: SVG Repo, www.svgrepo.com, Generator: SVG Repo Mixer Tools -->

<svg
   width="800px"
   height="800px"
   viewBox="0 0 24 24"
   fill="none"
   version="1.1"
   id="svg1"
   sodipodi:docname="volume-min.svg"
   inkscape:version="1.3.2 (091e20e, 2023-11-25, custom)"
   xmlns:inkscape="http://www.inkscape.org/namespaces/inkscape"
   xmlns:sodipodi="http://sodipodi.sourceforge.net/DTD/sodipodi-0.dtd"
   xmlns="http://www.w3.org/2000/svg"
   xmlns:svg="http://www.w3.org/2000/svg">
  <defs
     id="defs1" />
  <sodipodi:namedview
     id="namedview1"
     pagecolor="#ffffff"
     bordercolor="#000000"
     borderopacity="0.25"
     inkscape:showpageshadow="2"
     inkscape:pageopacity="0.0"
     inkscape:pagecheckerboard="true"
     inkscape:deskcolor="#d1d1d1"
     inkscape:zoom="0.71859727"
     inkscape:cx="338.15882"
     inkscape:cy="461.31542"
     inkscape:window-width="1920"
     inkscape:window-height="1009"
     inkscape:window-x="-8"
     inkscape:window-y="-8"
     inkscape:window-maximized="1"
     inkscape:current-layer="svg1" />
  <path
     d="m 6.6,9.00009 h 0.9012 c 0.55093,0 0.82639,0 1.08165,-0.06868 C 8.80903,8.87056 9.02275,8.77046 9.21429,8.63566 9.43047,8.48353 9.60681,8.27191 9.95951,7.84868 L 12.5854,4.69758 C 13.0211,4.17476 13.2389,3.91335 13.4292,3.88614 13.594,3.86258 13.7597,3.92258 13.8712,4.04617 14,4.18889 14,4.52917 14,5.20973 V 18.7904 c 0,0.6806 0,1.0209 -0.1288,1.1636 -0.1115,0.1236 -0.2772,0.1836 -0.442,0.16 -0.1902,-0.0272 -0.4081,-0.2886 -0.8438,-0.8114 L 9.95951,16.1515 C 9.60681,15.7283 9.43047,15.5166 9.21429,15.3645 9.02275,15.2297 8.80903,15.1296 8.58285,15.0688 8.32759,15.0001 8.05213,15.0001 7.5012,15.0001 H 6.6 c -0.56005,0 -0.84008,0 -1.05399,-0.109 C 5.35785,14.7952 5.20487,14.6422 5.10899,14.4541 5,14.2402 5,13.9601 5,13.4001 v -2.8 C 5,10.04 5,9.76001 5.10899,9.54609 5.20487,9.35793 5.35785,9.20495 5.54601,9.10908 5.75992,9.00009 6.03995,9.00009 6.6,9.00009 Z"
     style="stroke:#ffffff;stroke-width:1.5;stroke-linecap:round;stroke-linejoin:round;stroke-dasharray:none;stroke-opacity:1"
     id="path1-0" />
  <path
     d="m 6.6,9.00009 h 0.9012 c 0.55093,0 0.82639,0 1.08165,-0.06868 C 8.80903,8.87056 9.02275,8.77046 9.21429,8.63566 9.43047,8.48353 9.60681,8.27191 9.95951,7.84868 L 12.5854,4.69758 C 13.0211,4.17476 13.2389,3.91335 13.4292,3.88614 13.594,3.86258 13.7597,3.92258 13.8712,4.04617 14,4.18889 14,4.52917 14,5.20973 V 18.7904 c 0,0.6806 0,1.0209 -0.1288,1.1636 -0.1115,0.1236 -0.2772,0.1836 -0.442,0.16 -0.1902,-0.0272 -0.4081,-0.2886 -0.8438,-0.8114 L 9.95951,16.1515 C 9.60681,15.7283 9.43047,15.5166 9.21429,15.3645 9.02275,15.2297 8.80903,15.1296 8.58285,15.0688 8.32759,15.0001 8.05213,15.0001 7.5012,15.0001 H 6.6 c -0.56005,0 -0.84008,0 -1.05399,-0.109 C 5.35785,14.7952 5.20487,14.6422 5.10899,14.4541 5,14.2402 5,13.9601 5,13.4001 v -2.8 C 5,10.04 5,9.76001 5.10899,9.54609 5.20487,9.35793 5.35785,9.20495 5.54601,9.10908 5.75992,9.00009 6.03995,9.00009 6.6,9.00009 Z"
     stroke="#000000"
     stroke-width="2"
     stroke-linecap="round"
     stroke-linejoin="round"
     id="path1"
     style="stroke:#ffffff;stroke-width:1.5;stroke-dasharray:none;stroke-opacity:1;fill:#ffffff;fill-opacity:1"
     sodipodi:nodetypes="ssccccccssccccccssccsscss" />
  <path
     d="m 18,9.00009 c 0.6277,0.83566 0.9996,1.87441 0.9996,3.00001 0,1.1256 -0.3719,2.1643 -0.9996,3"
     stroke="#000000"
     stroke-width="2"
     stroke-linecap="round"
     stroke-linejoin="round"
     id="path2"
     style="stroke:#ffffff;stroke-width:1.5;stroke-dasharray:none;stroke-opacity:1"
     sodipodi:nodetypes="csc" />
</svg>
