<?xml version="1.0" encoding="UTF-8" standalone="no"?>
<svg
   viewBox="0 0 512 512"
   version="1.1"
   id="svg1"
   sodipodi:docname="white-like-icon.svg"
   inkscape:version="1.3.2 (091e20e, 2023-11-25, custom)"
   xml:space="preserve"
   xmlns:inkscape="http://www.inkscape.org/namespaces/inkscape"
   xmlns:sodipodi="http://sodipodi.sourceforge.net/DTD/sodipodi-0.dtd"
   xmlns="http://www.w3.org/2000/svg"
   xmlns:svg="http://www.w3.org/2000/svg"><defs
     id="defs1" /><sodipodi:namedview
     id="namedview1"
     pagecolor="#ffffff"
     bordercolor="#000000"
     borderopacity="0.25"
     inkscape:showpageshadow="2"
     inkscape:pageopacity="0.0"
     inkscape:pagecheckerboard="0"
     inkscape:deskcolor="#d1d1d1"
     inkscape:zoom="1.1228082"
     inkscape:cx="303.7028"
     inkscape:cy="291.67938"
     inkscape:window-width="1920"
     inkscape:window-height="1009"
     inkscape:window-x="-8"
     inkscape:window-y="-8"
     inkscape:window-maximized="1"
     inkscape:current-layer="svg1" /><!--!Font Awesome Free 6.5.2 by @fontawesome - https://fontawesome.com License - https://fontawesome.com/license/free Copyright 2024 Fonticons, Inc.--><g
     style="fill:none;stroke-width:57.67942078;stroke:#ffffff;stroke-opacity:1"
     id="g2"
     transform="matrix(0.52011618,0,0,0.52011618,435.47064,144.47603)"><g
       id="g1"
       style="fill:none;stroke:#ffffff;stroke-opacity:1">
	<g
   id="path1-2"
   style="fill:none;stroke:#ffffff;stroke-opacity:1"><path
     id="path3"
     style="color:#000000;stroke:#ffffff;-inkscape-stroke:none;fill:none;fill-opacity:1;stroke-opacity:1"
     d="M -450.5077 -3.7879433 C -492.82141 -3.7879433 -533.19736 12.953414 -563.10273 42.858786 C -593.07644 72.832491 -609.8558 113.26231 -609.74571 155.6904 C -609.73471 198.12252 -592.82286 238.42638 -562.90371 268.34552 L -375.10012 456.14535 C -367.00978 464.2357 -356.52573 468.58999 -345.20896 468.58999 C -334.45769 468.58999 -323.66958 464.59477 -315.3178 456.24299 L -127.13494 268.76234 L -127.11616 268.74356 C -97.141545 238.76894 -80.382161 198.36866 -80.371795 155.99081 C -80.261789 113.61776 -96.915926 73.160405 -126.91714 43.1592 C -156.90103 13.175307 -197.27272 -3.4875296 -239.60981 -3.4875297 C -278.60804 -3.4875296 -315.82705 10.841224 -344.89728 36.45622 C -374.00596 10.702971 -411.35818 -3.7879433 -450.5077 -3.7879433 z " /></g>
</g></g></svg>
