<?xml version="1.0" encoding="UTF-8" standalone="no"?>
<svg
   viewBox="0 0 512 512"
   version="1.1"
   id="svg1"
   sodipodi:docname="liked-icon.svg"
   inkscape:version="1.3.2 (091e20e, 2023-11-25, custom)"
   xml:space="preserve"
   xmlns:inkscape="http://www.inkscape.org/namespaces/inkscape"
   xmlns:sodipodi="http://sodipodi.sourceforge.net/DTD/sodipodi-0.dtd"
   xmlns="http://www.w3.org/2000/svg"
   xmlns:svg="http://www.w3.org/2000/svg"><defs
     id="defs1" /><sodipodi:namedview
     id="namedview1"
     pagecolor="#ffffff"
     bordercolor="#000000"
     borderopacity="0.25"
     inkscape:showpageshadow="2"
     inkscape:pageopacity="0.0"
     inkscape:pagecheckerboard="0"
     inkscape:deskcolor="#d1d1d1"
     inkscape:zoom="1.5878906"
     inkscape:cx="205.93358"
     inkscape:cy="267.3358"
     inkscape:window-width="1920"
     inkscape:window-height="1009"
     inkscape:window-x="-8"
     inkscape:window-y="-8"
     inkscape:window-maximized="1"
     inkscape:current-layer="svg1" /><circle
     style="fill:#000000;fill-opacity:1;stroke:none;stroke-width:34.3332;stroke-linecap:round;stroke-linejoin:round;paint-order:fill markers stroke"
     id="path2"
     cx="256"
     cy="256"
     r="256" /><!--!Font Awesome Free 6.5.2 by @fontawesome - https://fontawesome.com License - https://fontawesome.com/license/free Copyright 2024 Fonticons, Inc.--><g
     style="fill:none;fill-opacity:1;stroke:#ffffff;stroke-width:57.6794;stroke-dasharray:none;stroke-opacity:1"
     id="g2"
     transform="matrix(0.52011618,0,0,0.52011618,435.47064,144.47603)"><g
       id="g1"
       style="fill:none;fill-opacity:1;stroke:#ffffff;stroke-width:57.6794;stroke-dasharray:none;stroke-opacity:1">
	<path
   d="m -147.30876,63.550998 c -24.7,-24.7 -57.4,-38.2 -92.3,-38.2 -34.9,0 -67.7,13.6 -92.4,38.3 l -12.9,12.9 -13.1,-13.1 c -24.7,-24.7 -57.6,-38.4 -92.5,-38.4 -34.8,0 -67.6,13.6 -92.2,38.2 -24.7,24.7 -38.3,57.500002 -38.2,92.400002 0,34.9 13.7,67.6 38.4,92.3 l 187.8,187.8 c 2.6,2.6 6.1,4 9.5,4 3.4,0 6.9,-1.3 9.5,-3.9 l 188.2,-187.5 c 24.7,-24.7 38.3,-57.5 38.3,-92.4 0.1,-34.9 -13.4,-67.700002 -38.1,-92.400002 z"
   id="path1-2"
   style="fill:none;fill-opacity:1;stroke:#ffffff;stroke-width:57.6794;stroke-dasharray:none;stroke-opacity:1"
   sodipodi:nodetypes="ssscssscssscccs" />
</g></g></svg>
