<?xml version="1.0" encoding="UTF-8" standalone="no"?>
<!-- Created with Inkscape (http://www.inkscape.org/) -->

<svg
   width="512"
   height="512"
   viewBox="0 0 135.46667 135.46667"
   version="1.1"
   id="svg1"
   inkscape:version="1.3.2 (091e20e, 2023-11-25, custom)"
   sodipodi:docname="logo.svg"
   xmlns:inkscape="http://www.inkscape.org/namespaces/inkscape"
   xmlns:sodipodi="http://sodipodi.sourceforge.net/DTD/sodipodi-0.dtd"
   xmlns="http://www.w3.org/2000/svg"
   xmlns:svg="http://www.w3.org/2000/svg">
  <sodipodi:namedview
     id="namedview1"
     pagecolor="#ffffff"
     bordercolor="#000000"
     borderopacity="0.25"
     inkscape:showpageshadow="2"
     inkscape:pageopacity="0.0"
     inkscape:pagecheckerboard="true"
     inkscape:deskcolor="#d1d1d1"
     inkscape:document-units="mm"
     inkscape:zoom="1"
     inkscape:cx="281"
     inkscape:cy="242.5"
     inkscape:window-width="1920"
     inkscape:window-height="1009"
     inkscape:window-x="-8"
     inkscape:window-y="-8"
     inkscape:window-maximized="1"
     inkscape:current-layer="layer1" />
  <defs
     id="defs1" />
  <g
     inkscape:label="Vrstva 1"
     inkscape:groupmode="layer"
     id="layer1">
    <rect
       style="fill:#4b1a54;fill-opacity:1;stroke:none;stroke-width:15.875;stroke-linecap:round;stroke-linejoin:round;paint-order:stroke fill markers"
       id="rect2"
       width="135.46666"
       height="135.46666"
       x="0"
       y="0"
       ry="25.571957"
       rx="0" />
    <text
       xml:space="preserve"
       style="font-style:normal;font-variant:normal;font-weight:bold;font-stretch:normal;font-size:114.653px;font-family:Corbel;-inkscape-font-specification:'Corbel Bold';letter-spacing:0px;word-spacing:0px;fill:#ca86f5;fill-opacity:1;stroke:none;stroke-width:15.875;stroke-linecap:round;stroke-linejoin:round;paint-order:stroke fill markers"
       x="46.306736"
       y="121.98077"
       id="text3"><tspan
         sodipodi:role="line"
         id="tspan3"
         style="stroke-width:15.875"
         x="46.306736"
         y="121.98077">w</tspan></text>
    <path
       id="path3"
       style="fill:#ca86f5;fill-opacity:1;stroke:none;stroke-width:0.775;stroke-linecap:round;stroke-linejoin:round;stroke-dasharray:none;paint-order:stroke fill markers"
       d="m 37.463425,7.2001756 c -3.251035,6.12e-4 -5.886367,2.635944 -5.88698,5.8869794 v 64.231711 h -7.01094 c -10.37489,10e-7 -18.7854115,8.410531 -18.7854115,18.785405 0,10.374889 8.4105215,18.785419 18.7854115,18.785419 10.37489,0 18.78542,-8.41053 18.78542,-18.785419 V 77.318866 h -10e-4 V 19.255255 c 6.750286,0.594217 10.111931,2.303456 13.4922,5.390369 3.620489,3.306283 4.633309,13.835847 4.633309,13.835848 l 5.17e-4,0.0026 -5.17e-4,0.0036 v 17.132804 c 5.72e-4,3.250766 2.635696,5.88589 5.886463,5.886463 3.250766,-5.73e-4 5.88589,-2.635697 5.886462,-5.886463 V 38.495425 c 0,0 1.037782,-13.867163 -8.4646,-22.544878 C 58.588943,10.293381 50.213245,7.2001756 37.463425,7.2001756 Z"
       sodipodi:nodetypes="cccsssscccsccccccccc" />
  </g>
</svg>
