<?xml version="1.0" encoding="UTF-8" standalone="no"?>
<!-- Uploaded to: SVG Repo, www.svgrepo.com, Generator: SVG Repo Mixer Tools -->

<svg
   width="800px"
   height="800px"
   viewBox="0 0 512 512"
   version="1.1"
   id="svg2"
   sodipodi:docname="loop0.svg"
   inkscape:version="1.3.2 (091e20e, 2023-11-25, custom)"
   xmlns:inkscape="http://www.inkscape.org/namespaces/inkscape"
   xmlns:sodipodi="http://sodipodi.sourceforge.net/DTD/sodipodi-0.dtd"
   xmlns="http://www.w3.org/2000/svg"
   xmlns:svg="http://www.w3.org/2000/svg">
  <defs
     id="defs2">
    <inkscape:path-effect
       effect="perspective-envelope"
       up_left_point="412.0408,76.673748"
       up_right_point="481.94455,76.673748"
       down_left_point="412.0408,179.32624"
       down_right_point="481.94455,179.32624"
       id="path-effect5"
       is_visible="true"
       lpeversion="1"
       deform_type="perspective"
       horizontal_mirror="false"
       vertical_mirror="false"
       overflow_perspective="false" />
  </defs>
  <sodipodi:namedview
     id="namedview2"
     pagecolor="#ffffff"
     bordercolor="#000000"
     borderopacity="0.25"
     inkscape:showpageshadow="2"
     inkscape:pageopacity="0.0"
     inkscape:pagecheckerboard="true"
     inkscape:deskcolor="#d1d1d1"
     inkscape:zoom="0.5"
     inkscape:cx="446"
     inkscape:cy="481"
     inkscape:window-width="1920"
     inkscape:window-height="1009"
     inkscape:window-x="-8"
     inkscape:window-y="-8"
     inkscape:window-maximized="1"
     inkscape:current-layer="svg2"
     showgrid="false"
     showguides="false" />
  <path
     id="path1"
     class="ci-primary"
     d="M 480 194.68125 A 16 15.830361 0 0 0 464 210.51125 L 464 264 C 463.93 325.82676 413.82676 375.93001 352 376 L 115.95875 376 L 115.95875 340.66 C 115.95658 331.89104 108.93392 324.87631 100.375 324.66625 C 99.804401 324.65225 99.226379 324.66825 98.64375 324.71625 C 95.696313 324.95881 92.874308 326.01409 90.49 327.76375 L 20.58625 379.08875 C 11.880769 385.48271 11.880769 398.48854 20.58625 404.8825 L 90.49 456.20875 C 101.05729 463.96426 115.95575 456.42035 115.95875 443.3125 L 115.95875 408 L 352 408 C 431.39984 408 496 343.39984 496 264 L 496 210.51125 A 16 15.830361 0 0 0 480 194.68125 z "
     style="fill:#ffffff;fill-opacity:1;stroke:none;stroke-width:0.99968;stroke-dasharray:none" />
  <path
     id="path2"
     class="ci-primary"
     d="M 411.625 60.68 C 403.06608 60.890066 396.04342 67.90479 396.04125 76.67375 L 396.04125 112 L 160 112 C 80.600158 112 16 176.60016 16 256 L 16 309.7875 A 16 15.830361 0 0 0 32 325.6175 A 16 15.830361 0 0 0 48 309.7875 L 48 256 C 48.06999 194.17324 98.173245 144.06999 160 144 L 396.04125 144 L 396.04125 179.32625 C 396.04425 192.4341 410.94271 199.97801 421.51 192.2225 L 491.41375 140.89625 C 500.11923 134.50229 500.11923 121.49771 491.41375 115.10375 L 421.51 63.7775 C 419.12569 62.027843 416.30369 60.97256 413.35625 60.73 C 412.77362 60.682024 412.1956 60.665996 411.625 60.68 z "
     style="fill:#ffffff;fill-opacity:1;stroke:none;stroke-width:0.99968;stroke-dasharray:none" />
  <text
     xml:space="preserve"
     style="font-size:170.667px;fill:#000000;fill-opacity:1;stroke-width:19.2;stroke-linecap:round;stroke-linejoin:round;paint-order:fill markers stroke"
     x="166.88806"
     y="274.57809"
     id="text2"><tspan
       sodipodi:role="line"
       id="tspan2"
       style="font-size:170.667px;fill:#000000;fill-opacity:1;stroke-width:19.2"
       x="166.88806"
       y="274.57809" /></text>
  <g
     id="path4"
     transform="translate(2.3e-4)" />
  <g
     id="path4-9"
     transform="translate(-94.709774,111.79074)" />
</svg>
