<?xml version="1.0" encoding="UTF-8" standalone="no"?>
<!-- Created with Inkscape (http://www.inkscape.org/) -->

<svg
   width="512"
   height="512"
   viewBox="0 0 135.46667 135.46667"
   version="1.1"
   id="svg1"
   inkscape:version="1.3.2 (091e20e, 2023-11-25, custom)"
   sodipodi:docname="nonewloop.svg"
   xmlns:inkscape="http://www.inkscape.org/namespaces/inkscape"
   xmlns:sodipodi="http://sodipodi.sourceforge.net/DTD/sodipodi-0.dtd"
   xmlns="http://www.w3.org/2000/svg"
   xmlns:svg="http://www.w3.org/2000/svg">
  <sodipodi:namedview
     id="namedview1"
     pagecolor="#838383"
     bordercolor="#000000"
     borderopacity="0.25"
     inkscape:showpageshadow="2"
     inkscape:pageopacity="0.0"
     inkscape:pagecheckerboard="true"
     inkscape:deskcolor="#d1d1d1"
     inkscape:document-units="mm"
     inkscape:zoom="0.74475309"
     inkscape:cx="416.9167"
     inkscape:cy="236.9913"
     inkscape:window-width="1920"
     inkscape:window-height="1009"
     inkscape:window-x="-8"
     inkscape:window-y="-8"
     inkscape:window-maximized="1"
     inkscape:current-layer="g14"
     showguides="true" />
  <defs
     id="defs1">
    <inkscape:path-effect
       effect="bend_path"
       id="path-effect4"
       is_visible="true"
       lpeversion="1"
       bendpath="M 69.631577,73.539476 H 396.47368"
       prop_scale="1"
       scale_y_rel="false"
       vertical="false"
       hide_knot="false" />
  </defs>
  <g
     inkscape:label="Vrstva 1"
     inkscape:groupmode="layer"
     id="layer1">
    <path
       style="fill:none;fill-opacity:1;stroke:#fefefe;stroke-width:0;stroke-linecap:round;stroke-linejoin:round;stroke-dasharray:none;stroke-opacity:1;paint-order:stroke fill markers"
       d="M 154.18056,108.52228 453.181,125.60449"
       id="path4" />
    <g
       id="g11"
       transform="translate(-2.2664227,0.53558583)">
      <g
         id="g12"
         transform="translate(-6.3441095,4.2187705)">
        <g
           id="g13"
           transform="translate(9.922755,-0.711155)">
          <g
             id="g14"
             transform="translate(6.1425,-4.175175)">
            <g
               id="g23"
               transform="translate(2.60025e-4)">
              <path
                 id="path8"
                 style="color:#000000;fill:#fefefe;stroke-linecap:round;stroke-linejoin:round;-inkscape-stroke:none;paint-order:stroke fill markers"
                 d="m 60.605722,36.839811 c -5.375338,0 -10.097346,0.775745 -14.235823,2.10168 l 6.464205,6.464205 c 2.346113,-0.404183 4.923282,-0.628385 7.771618,-0.628385 a 3.96875,3.96875 0 0 0 3.96875,-3.96875 3.96875,3.96875 0 0 0 -3.96875,-3.96875 z M 28.610776,51.212577 c -1.624274,2.073166 -2.960551,4.233348 -4.034379,6.381006 -5.113093,10.226184 -5.058606,20.334159 -5.058606,20.334159 a 3.96875,3.96875 0 0 0 3.96875,3.96875 3.96875,3.96875 0 0 0 3.96875,-3.96875 c 0,0 0.05392,-8.452031 4.220414,-16.785022 0.731317,-1.462633 1.578467,-2.911475 2.551782,-4.313432 z" />
              <path
                 style="fill:none;fill-opacity:1;stroke:#fefefe;stroke-width:7.9375;stroke-linecap:round;stroke-linejoin:round;stroke-dasharray:none;stroke-opacity:1;paint-order:stroke fill markers"
                 d="m 60.605402,40.808816 h 9.186202"
                 id="path9"
                 sodipodi:nodetypes="cc" />
              <path
                 id="path11"
                 style="fill:#fefefe;fill-opacity:1;stroke:#fefefe;stroke-width:7.9375;stroke-linecap:round;stroke-linejoin:round;stroke-dasharray:none;stroke-opacity:1;paint-order:stroke fill markers"
                 d="M 69.791604,28.625064 V 40.808816 52.992569 L 87.230852,40.808816 Z" />
              <path
                 id="path8-4"
                 style="color:#000000;fill:#fefefe;stroke-linecap:round;stroke-linejoin:round;-inkscape-stroke:none;paint-order:stroke fill markers"
                 d="m 97.070163,53.834122 a 3.96875,3.96875 0 0 0 -3.96875,3.96875 c 0,0 -0.05391,8.452015 -4.220414,16.785022 -0.731537,1.463074 -1.574569,2.914367 -2.547648,4.317049 l 5.61206,5.612061 c 1.622878,-2.073624 2.961247,-4.23319 4.034896,-6.380489 5.113103,-10.226207 5.058603,-20.333643 5.058603,-20.333643 a 3.96875,3.96875 0 0 0 -3.968747,-3.96875 z m -29.346012,36.49183 c -2.346645,0.403782 -4.924904,0.627351 -7.773169,0.627351 a 3.96875,3.96875 0 0 0 -3.96875,3.96875 3.96875,3.96875 0 0 0 3.96875,3.96875 c 5.375137,0 10.098315,-0.77519 14.237891,-2.10013 z" />
              <path
                 style="fill:none;fill-opacity:1;stroke:#fefefe;stroke-width:7.9375;stroke-linecap:round;stroke-linejoin:round;stroke-dasharray:none;stroke-opacity:1;paint-order:stroke fill markers"
                 d="M 59.951819,94.921798 H 50.765616"
                 id="path9-0"
                 sodipodi:nodetypes="cc" />
              <path
                 id="path11-5"
                 style="fill:#fefefe;fill-opacity:1;stroke:#fefefe;stroke-width:7.9375;stroke-linecap:round;stroke-linejoin:round;stroke-dasharray:none;stroke-opacity:1;paint-order:stroke fill markers"
                 d="M 50.765616,107.10555 V 94.921798 82.738044 l -17.43925,12.183753 z" />
              <path
                 style="fill:#fefefe;fill-opacity:1;stroke:#fefefe;stroke-width:7.9375;stroke-linecap:round;stroke-linejoin:round;stroke-dasharray:none;stroke-opacity:1;paint-order:stroke fill markers"
                 d="M 23.952955,31.539653 96.604267,104.19096"
                 id="path16" />
            </g>
            <g
               id="g22" />
            <g
               id="path18" />
          </g>
        </g>
      </g>
    </g>
  </g>
</svg>
