<?xml version="1.0" encoding="UTF-8" standalone="no"?>
<!-- Uploaded to: SVG Repo, www.svgrepo.com, Generator: SVG Repo Mixer Tools -->

<svg
   width="800px"
   height="800px"
   viewBox="0 0 24 24"
   fill="none"
   version="1.1"
   id="svg1"
   sodipodi:docname="volume-off.svg"
   inkscape:version="1.3.2 (091e20e, 2023-11-25, custom)"
   xmlns:inkscape="http://www.inkscape.org/namespaces/inkscape"
   xmlns:sodipodi="http://sodipodi.sourceforge.net/DTD/sodipodi-0.dtd"
   xmlns="http://www.w3.org/2000/svg"
   xmlns:svg="http://www.w3.org/2000/svg">
  <defs
     id="defs1" />
  <sodipodi:namedview
     id="namedview1"
     pagecolor="#818181"
     bordercolor="#000000"
     borderopacity="0.25"
     inkscape:showpageshadow="2"
     inkscape:pageopacity="0.0"
     inkscape:pagecheckerboard="true"
     inkscape:deskcolor="#d1d1d1"
     inkscape:zoom="0.71859727"
     inkscape:cx="350.68322"
     inkscape:cy="465.49022"
     inkscape:window-width="1920"
     inkscape:window-height="1009"
     inkscape:window-x="-8"
     inkscape:window-y="-8"
     inkscape:window-maximized="1"
     inkscape:current-layer="svg1" />
  <g
     id="path1">
    <path
       id="path20"
       style="color:#000000;fill:#ffffff;stroke-linecap:round;stroke-linejoin:round;-inkscape-stroke:none"
       d="M 11.476406 3.1321289 C 11.425138 3.133081 11.373636 3.137204 11.322246 3.1445508 C 10.933635 3.2001154 10.739669 3.4030277 10.566387 3.5781445 C 10.393106 3.7532617 10.227586 3.9554187 10.009746 4.2168164 L 8.0858789 6.5254687 L 12.75 12.59291 L 12.75 5.2089844 C 12.75 4.8687059 12.751518 4.6067926 12.730488 4.3613086 C 12.709462 4.1158242 12.690761 3.83444 12.427734 3.5429883 C 12.184327 3.273185 11.835283 3.1254639 11.476406 3.1321289 z M 3.7533398 8.2730859 C 3.5703916 8.2978404 3.3932225 8.3455637 3.2050781 8.4414258 C 2.8758763 8.6091584 2.6091635 8.8759007 2.4414258 9.2050781 C 2.2122678 9.6548577 2.25 10.039514 2.25 10.599609 L 2.25 13.400391 C 2.25 13.960386 2.2121933 14.345037 2.4414258 14.794922 C 2.6091616 15.123992 2.8759119 15.390806 3.2050781 15.558574 C 3.6549053 15.787789 4.0395619 15.75 4.5996094 15.75 L 5.5019531 15.75 C 6.0528806 15.75 6.2641497 15.759479 6.3886523 15.792949 C 6.5299179 15.830919 6.6635078 15.894264 6.7832227 15.978516 C 6.8885262 16.052606 7.0300728 16.207591 7.3828125 16.63084 L 10.009746 19.783184 C 10.227604 20.044591 10.393101 20.246761 10.566387 20.421855 C 10.739673 20.596953 10.933571 20.799865 11.322246 20.855449 C 11.733458 20.914339 12.149556 20.765376 12.427734 20.457012 C 12.600473 20.265632 12.664016 20.07978 12.695859 19.904414 L 3.7533398 8.2730859 z " />
  </g>
  <path
     style="fill:#ffffff;fill-opacity:1;stroke:#ffffff;stroke-width:1.5;stroke-linecap:round;stroke-linejoin:round;stroke-dasharray:none;stroke-opacity:1;paint-order:stroke fill markers"
     d="M 2.9975667,3.5982032 15.916023,20.401773"
     id="path6"
     sodipodi:nodetypes="cc" />
</svg>
